<svg xmlns="http://www.w3.org/2000/svg" width="1200" height="650" viewBox="0 0 1200 650"><path d="M0.7 306.0l40.4 -1.4" stroke="#ec77c8" stroke-opacity="0.05" stroke-width="1.4"/><path d="M464.7 570.9l90.9 -0.6" stroke="#aaa0ad" stroke-opacity="0.08" stroke-width="0.8"/><path d="M995.4 318.0l84.9 -1.1" stroke="#aaa0ad" stroke-opacity="0.04" stroke-width="1.1"/><path d="M727.1 528.2l5.9 -0.2" stroke="#aaa0ad" stroke-opacity="0.05" stroke-width="1.8"/><path d="M1108.8 610.3l62.1 -1.3" stroke="#aaa0ad" stroke-opacity="0.12" stroke-width="1.0"/><path d="M651.7 570.9l89.7 -0.2" stroke="#ec77c8" stroke-opacity="0.13" stroke-width="1.2"/><path d="M660.0 300.0l35.5 -0.6" stroke="#aaa0ad" stroke-opacity="0.10" stroke-width="1.4"/><path d="M37.9 157.1l90.9 -0.8" stroke="#aaa0ad" stroke-opacity="0.06" stroke-width="1.3"/><path d="M762.1 274.1l18.8 -0.3" stroke="#aaa0ad" stroke-opacity="0.02" stroke-width="1.5"/><path d="M1040.5 642.5l2.9 0.4" stroke="#aaa0ad" stroke-opacity="0.06" stroke-width="0.8"/><path d="M162.0 211.7l17.3 1.4" stroke="#ec77c8" stroke-opacity="0.00" stroke-width="1.1"/><path d="M194.9 346.3l23.9 -0.6" stroke="#aaa0ad" stroke-opacity="0.01" stroke-width="1.3"/><path d="M1139.9 516.7l14.2 -0.2" stroke="#aaa0ad" stroke-opacity="0.10" stroke-width="1.2"/><path d="M994.8 295.6l60.3 -1.4" stroke="#aaa0ad" stroke-opacity="0.02" stroke-width="1.1"/><path d="M616.6 212.6l0.8 -0.8" stroke="#aaa0ad" stroke-opacity="0.12" stroke-width="1.8"/><path d="M948.0 35.9l27.3 1.4" stroke="#ec77c8" stroke-opacity="0.07" stroke-width="1.7"/><path d="M803.8 382.7l39.1 1.2" stroke="#aaa0ad" stroke-opacity="0.09" stroke-width="1.3"/><path d="M815.1 545.7l6.8 -1.0" stroke="#aaa0ad" stroke-opacity="0.10" stroke-width="0.8"/><path d="M576.5 578.9l78.6 1.1" stroke="#aaa0ad" stroke-opacity="0.12" stroke-width="0.4"/><path d="M1187.0 407.5l50.3 -0.5" stroke="#aaa0ad" stroke-opacity="0.06" stroke-width="0.8"/><path d="M661.6 500.7l21.6 1.0" stroke="#ec77c8" stroke-opacity="0.12" stroke-width="0.4"/><path d="M634.3 177.8l2.5 1.1" stroke="#aaa0ad" stroke-opacity="0.11" stroke-width="1.7"/><path d="M988.9 37.0l77.9 1.2" stroke="#aaa0ad" stroke-opacity="0.13" stroke-width="1.2"/><path d="M332.9 572.9l48.8 0.9" stroke="#aaa0ad" stroke-opacity="0.01" stroke-width="1.3"/><path d="M957.6 280.3l21.1 0.5" stroke="#aaa0ad" stroke-opacity="0.02" stroke-width="0.5"/><path d="M492.2 129.3l7.4 -0.4" stroke="#ec77c8" stroke-opacity="0.13" stroke-width="0.7"/><path d="M147.9 578.7l75.8 1.0" stroke="#aaa0ad" stroke-opacity="0.11" stroke-width="0.7"/><path d="M36.7 412.1l4.3 1.3" stroke="#aaa0ad" stroke-opacity="0.09" stroke-width="0.6"/><path d="M262.9 352.7l44.6 0.8" stroke="#aaa0ad" stroke-opacity="0.08" stroke-width="1.3"/><path d="M139.9 197.9l22.0 0.7" stroke="#aaa0ad" stroke-opacity="0.05" stroke-width="1.5"/><path d="M198.9 367.6l24.4 -1.3" stroke="#ec77c8" stroke-opacity="0.12" stroke-width="1.0"/><path d="M1116.8 287.5l0.9 1.4" stroke="#aaa0ad" stroke-opacity="0.12" stroke-width="0.9"/><path d="M274.0 561.9l42.1 -0.7" stroke="#aaa0ad" stroke-opacity="0.06" stroke-width="1.1"/><path d="M758.1 245.8l60.7 0.2" stroke="#aaa0ad" stroke-opacity="0.01" stroke-width="1.3"/><path d="M349.7 540.0l69.5 -1.4" stroke="#aaa0ad" stroke-opacity="0.06" stroke-width="1.5"/><path d="M628.3 73.3l68.3 0.1" stroke="#ec77c8" stroke-opacity="0.08" stroke-width="1.0"/><path d="M782.2 565.9l40.4 -0.4" stroke="#aaa0ad" stroke-opacity="0.10" stroke-width="1.5"/><path d="M431.1 451.1l36.6 -0.9" stroke="#aaa0ad" stroke-opacity="0.01" stroke-width="0.4"/><path d="M441.5 648.5l34.4 -1.3" stroke="#aaa0ad" stroke-opacity="0.02" stroke-width="0.2"/><path d="M510.0 152.2l51.8 -1.2" stroke="#aaa0ad" stroke-opacity="0.10" stroke-width="0.3"/><path d="M562.0 429.2l66.2 -1.3" stroke="#ec77c8" stroke-opacity="0.04" stroke-width="0.6"/><path d="M1123.7 38.7l39.5 -0.4" stroke="#aaa0ad" stroke-opacity="0.01" stroke-width="0.3"/><path d="M817.6 239.3l98.1 -1.3" stroke="#aaa0ad" stroke-opacity="0.02" stroke-width="0.2"/><path d="M934.6 144.5l4.2 0.5" stroke="#aaa0ad" stroke-opacity="0.10" stroke-width="1.6"/><path d="M10.0 214.0l39.7 -0.4" stroke="#aaa0ad" stroke-opacity="0.11" stroke-width="1.8"/><path d="M666.6 145.1l6.9 -0.3" stroke="#ec77c8" stroke-opacity="0.11" stroke-width="0.9"/><path d="M1121.2 284.9l41.7 -0.6" stroke="#aaa0ad" stroke-opacity="0.13" stroke-width="1.5"/><path d="M973.6 515.4l57.2 -1.4" stroke="#aaa0ad" stroke-opacity="0.11" stroke-width="1.3"/><path d="M327.3 478.0l64.2 -0.4" stroke="#aaa0ad" stroke-opacity="0.02" stroke-width="1.0"/><path d="M983.0 206.6l79.8 0.6" stroke="#aaa0ad" stroke-opacity="0.01" stroke-width="0.6"/><path d="M155.4 137.6l20.5 0.3" stroke="#ec77c8" stroke-opacity="0.01" stroke-width="0.3"/><path d="M413.5 618.8l38.8 -0.1" stroke="#aaa0ad" stroke-opacity="0.12" stroke-width="1.6"/><path d="M1057.9 217.9l73.6 0.3" stroke="#aaa0ad" stroke-opacity="0.04" stroke-width="1.2"/><path d="M1132.1 608.6l55.5 -1.2" stroke="#aaa0ad" stroke-opacity="0.03" stroke-width="1.4"/><path d="M892.7 36.1l37.3 -0.5" stroke="#aaa0ad" stroke-opacity="0.04" stroke-width="0.2"/><path d="M764.0 426.6l29.7 -1.0" stroke="#ec77c8" stroke-opacity="0.03" stroke-width="1.7"/><path d="M130.9 412.7l62.1 -0.7" stroke="#aaa0ad" stroke-opacity="0.05" stroke-width="1.3"/><path d="M4.1 298.9l89.5 -1.4" stroke="#aaa0ad" stroke-opacity="0.02" stroke-width="1.3"/><path d="M182.8 98.3l23.4 0.4" stroke="#aaa0ad" stroke-opacity="0.12" stroke-width="1.2"/><path d="M33.8 538.4l24.7 0.8" stroke="#aaa0ad" stroke-opacity="0.00" stroke-width="1.2"/><path d="M846.2 49.7l74.3 -0.6" stroke="#ec77c8" stroke-opacity="0.04" stroke-width="0.3"/><path d="M235.4 550.1l76.5 0.8" stroke="#aaa0ad" stroke-opacity="0.13" stroke-width="1.5"/><path d="M997.6 383.5l57.4 1.2" stroke="#aaa0ad" stroke-opacity="0.13" stroke-width="0.9"/><path d="M1121.2 80.0l39.0 -1.2" stroke="#aaa0ad" stroke-opacity="0.02" stroke-width="0.6"/><path d="M389.9 199.1l69.0 0.8" stroke="#aaa0ad" stroke-opacity="0.10" stroke-width="0.3"/><path d="M450.5 494.6l42.3 -0.1" stroke="#ec77c8" stroke-opacity="0.01" stroke-width="0.7"/><path d="M975.8 110.3l6.1 0.1" stroke="#aaa0ad" stroke-opacity="0.10" stroke-width="0.4"/><path d="M542.2 46.2l78.4 -1.0" stroke="#aaa0ad" stroke-opacity="0.10" stroke-width="1.4"/><path d="M479.2 215.9l67.3 -0.1" stroke="#aaa0ad" stroke-opacity="0.07" stroke-width="1.6"/><path d="M1067.2 637.0l8.6 0.1" stroke="#aaa0ad" stroke-opacity="0.01" stroke-width="0.8"/><path d="M772.1 261.2l91.6 -0.2" stroke="#ec77c8" stroke-opacity="0.02" stroke-width="1.5"/><path d="M705.4 16.3l8.6 0.3" stroke="#aaa0ad" stroke-opacity="0.01" stroke-width="1.6"/><path d="M165.9 36.1l5.2 -1.1" stroke="#aaa0ad" stroke-opacity="0.08" stroke-width="0.4"/><path d="M220.4 165.7l48.4 -0.9" stroke="#aaa0ad" stroke-opacity="0.12" stroke-width="1.2"/><path d="M674.8 533.3l8.2 0.2" stroke="#aaa0ad" stroke-opacity="0.04" stroke-width="0.5"/><path d="M897.6 43.7l80.6 0.6" stroke="#ec77c8" stroke-opacity="0.09" stroke-width="0.7"/><path d="M175.4 421.9l11.0 0.2" stroke="#aaa0ad" stroke-opacity="0.07" stroke-width="1.2"/><path d="M732.2 496.9l3.0 0.1" stroke="#aaa0ad" stroke-opacity="0.13" stroke-width="1.7"/><path d="M471.7 57.5l18.5 -0.4" stroke="#aaa0ad" stroke-opacity="0.06" stroke-width="1.3"/><path d="M184.6 63.3l94.0 -0.0" stroke="#aaa0ad" stroke-opacity="0.00" stroke-width="0.5"/><path d="M1082.3 52.6l13.4 0.9" stroke="#ec77c8" stroke-opacity="0.08" stroke-width="0.8"/><path d="M300.2 7.3l89.5 -0.4" stroke="#aaa0ad" stroke-opacity="0.13" stroke-width="1.7"/><path d="M452.5 52.0l48.7 0.4" stroke="#aaa0ad" stroke-opacity="0.08" stroke-width="1.7"/><path d="M608.8 642.7l39.6 0.7" stroke="#aaa0ad" stroke-opacity="0.02" stroke-width="1.5"/><path d="M20.2 615.4l57.6 0.0" stroke="#aaa0ad" stroke-opacity="0.06" stroke-width="1.3"/><path d="M1195.2 220.6l86.1 0.6" stroke="#ec77c8" stroke-opacity="0.11" stroke-width="0.7"/><path d="M882.3 633.6l75.4 1.1" stroke="#aaa0ad" stroke-opacity="0.10" stroke-width="0.8"/><path d="M696.0 458.7l88.1 -0.4" stroke="#aaa0ad" stroke-opacity="0.09" stroke-width="1.3"/><path d="M128.3 335.2l78.5 -0.5" stroke="#aaa0ad" stroke-opacity="0.11" stroke-width="1.3"/><path d="M563.1 232.0l6.4 1.3" stroke="#aaa0ad" stroke-opacity="0.12" stroke-width="1.0"/><path d="M329.9 372.7l59.3 0.1" stroke="#ec77c8" stroke-opacity="0.07" stroke-width="1.1"/><path d="M450.4 343.1l77.6 0.3" stroke="#aaa0ad" stroke-opacity="0.03" stroke-width="0.8"/><path d="M14.8 219.3l60.3 -1.3" stroke="#aaa0ad" stroke-opacity="0.11" stroke-width="1.4"/><path d="M1106.2 202.6l98.2 -0.4" stroke="#aaa0ad" stroke-opacity="0.00" stroke-width="1.6"/><path d="M669.3 376.9l74.5 1.4" stroke="#aaa0ad" stroke-opacity="0.02" stroke-width="0.5"/><path d="M660.0 151.2l98.4 0.2" stroke="#ec77c8" stroke-opacity="0.11" stroke-width="0.4"/><path d="M919.7 172.5l37.7 -0.8" stroke="#aaa0ad" stroke-opacity="0.02" stroke-width="1.6"/><path d="M736.5 293.4l37.0 0.5" stroke="#aaa0ad" stroke-opacity="0.04" stroke-width="0.4"/><path d="M387.8 410.9l59.4 -1.4" stroke="#aaa0ad" stroke-opacity="0.01" stroke-width="1.3"/><path d="M552.3 47.0l30.4 0.7" stroke="#aaa0ad" stroke-opacity="0.10" stroke-width="1.0"/><path d="M317.4 638.5l3.9 -0.8" stroke="#ec77c8" stroke-opacity="0.06" stroke-width="0.8"/><path d="M1078.5 570.1l72.9 -0.3" stroke="#aaa0ad" stroke-opacity="0.05" stroke-width="1.6"/><path d="M736.1 551.2l23.3 -0.8" stroke="#aaa0ad" stroke-opacity="0.06" stroke-width="1.4"/><path d="M478.7 522.5l0.5 -0.4" stroke="#aaa0ad" stroke-opacity="0.00" stroke-width="0.9"/><path d="M853.9 180.7l22.9 0.3" stroke="#aaa0ad" stroke-opacity="0.03" stroke-width="1.4"/><path d="M851.5 409.5l0.5 -1.3" stroke="#ec77c8" stroke-opacity="0.01" stroke-width="1.2"/><path d="M285.8 299.7l43.6 0.6" stroke="#aaa0ad" stroke-opacity="0.11" stroke-width="0.3"/><path d="M841.7 63.6l73.6 0.6" stroke="#aaa0ad" stroke-opacity="0.13" stroke-width="0.6"/><path d="M556.3 37.7l13.6 -0.9" stroke="#aaa0ad" stroke-opacity="0.12" stroke-width="1.4"/><path d="M1105.7 618.0l35.2 0.3" stroke="#aaa0ad" stroke-opacity="0.06" stroke-width="1.3"/><path d="M260.9 367.8l7.7 -0.6" stroke="#ec77c8" stroke-opacity="0.08" stroke-width="1.5"/><path d="M373.6 586.8l77.3 -1.1" stroke="#aaa0ad" stroke-opacity="0.04" stroke-width="1.7"/><path d="M441.9 125.5l4.7 1.2" stroke="#aaa0ad" stroke-opacity="0.10" stroke-width="1.6"/><path d="M463.3 368.8l46.6 0.4" stroke="#aaa0ad" stroke-opacity="0.12" stroke-width="1.8"/><path d="M515.8 552.8l18.5 -0.5" stroke="#aaa0ad" stroke-opacity="0.02" stroke-width="0.8"/><path d="M406.6 404.4l28.0 -0.4" stroke="#ec77c8" stroke-opacity="0.09" stroke-width="0.6"/><path d="M355.4 17.9l1.5 0.0" stroke="#aaa0ad" stroke-opacity="0.13" stroke-width="0.3"/><path d="M778.8 100.1l40.0 0.8" stroke="#aaa0ad" stroke-opacity="0.12" stroke-width="0.5"/><path d="M789.8 181.5l71.6 0.3" stroke="#aaa0ad" stroke-opacity="0.01" stroke-width="1.0"/><path d="M780.3 466.0l57.4 0.7" stroke="#aaa0ad" stroke-opacity="0.13" stroke-width="1.8"/><path d="M405.7 381.0l94.7 -1.4" stroke="#ec77c8" stroke-opacity="0.11" stroke-width="0.5"/><path d="M411.3 34.6l54.4 -1.0" stroke="#aaa0ad" stroke-opacity="0.06" stroke-width="1.7"/><path d="M718.5 108.9l64.3 -0.9" stroke="#aaa0ad" stroke-opacity="0.07" stroke-width="1.7"/><path d="M925.9 11.9l37.6 -0.7" stroke="#aaa0ad" stroke-opacity="0.01" stroke-width="0.4"/><path d="M1168.5 376.6l34.5 0.8" stroke="#aaa0ad" stroke-opacity="0.01" stroke-width="1.7"/><path d="M416.1 251.8l82.5 1.0" stroke="#ec77c8" stroke-opacity="0.01" stroke-width="1.1"/><path d="M589.2 554.0l98.6 0.2" stroke="#aaa0ad" stroke-opacity="0.06" stroke-width="1.4"/><path d="M197.5 123.7l77.1 0.9" stroke="#aaa0ad" stroke-opacity="0.05" stroke-width="1.1"/><path d="M447.2 529.5l0.4 -0.7" stroke="#aaa0ad" stroke-opacity="0.12" stroke-width="1.1"/><path d="M290.6 99.5l25.2 -0.3" stroke="#aaa0ad" stroke-opacity="0.06" stroke-width="1.7"/><path d="M814.4 318.3l15.6 0.7" stroke="#ec77c8" stroke-opacity="0.09" stroke-width="0.8"/><path d="M752.1 349.4l68.2 1.2" stroke="#aaa0ad" stroke-opacity="0.03" stroke-width="0.7"/><path d="M765.6 410.3l20.3 1.2" stroke="#aaa0ad" stroke-opacity="0.06" stroke-width="0.7"/><path d="M259.0 169.7l83.5 0.3" stroke="#aaa0ad" stroke-opacity="0.00" stroke-width="1.7"/><path d="M724.3 165.1l2.0 -0.1" stroke="#aaa0ad" stroke-opacity="0.11" stroke-width="1.3"/><path d="M291.3 487.6l93.8 -0.3" stroke="#ec77c8" stroke-opacity="0.04" stroke-width="1.2"/><path d="M606.1 495.4l30.0 -0.8" stroke="#aaa0ad" stroke-opacity="0.02" stroke-width="0.7"/><path d="M1050.4 305.1l59.4 -1.5" stroke="#aaa0ad" stroke-opacity="0.12" stroke-width="1.1"/><path d="M609.6 350.6l23.0 -0.3" stroke="#aaa0ad" stroke-opacity="0.10" stroke-width="1.1"/><path d="M294.9 16.8l14.1 -1.0" stroke="#aaa0ad" stroke-opacity="0.07" stroke-width="1.0"/><path d="M918.3 345.3l31.8 -0.3" stroke="#ec77c8" stroke-opacity="0.00" stroke-width="0.4"/><path d="M179.5 171.2l27.1 -1.4" stroke="#aaa0ad" stroke-opacity="0.06" stroke-width="0.3"/><path d="M1036.0 122.2l87.9 -0.6" stroke="#aaa0ad" stroke-opacity="0.12" stroke-width="1.5"/><path d="M543.5 634.0l33.5 -1.0" stroke="#aaa0ad" stroke-opacity="0.08" stroke-width="1.0"/><path d="M1105.6 509.1l1.8 -0.3" stroke="#aaa0ad" stroke-opacity="0.02" stroke-width="0.8"/><path d="M12.2 170.1l32.3 -1.1" stroke="#ec77c8" stroke-opacity="0.05" stroke-width="0.9"/><path d="M839.2 109.6l16.7 0.0" stroke="#aaa0ad" stroke-opacity="0.07" stroke-width="0.5"/><path d="M1106.4 463.3l25.4 0.5" stroke="#aaa0ad" stroke-opacity="0.03" stroke-width="1.8"/><path d="M177.6 3.9l12.4 1.3" stroke="#aaa0ad" stroke-opacity="0.09" stroke-width="1.1"/><path d="M14.6 356.0l43.3 0.1" stroke="#aaa0ad" stroke-opacity="0.02" stroke-width="1.4"/><path d="M52.8 45.6l93.8 -0.2" stroke="#ec77c8" stroke-opacity="0.13" stroke-width="0.2"/><path d="M617.1 427.9l37.8 -0.4" stroke="#aaa0ad" stroke-opacity="0.05" stroke-width="0.7"/><path d="M600.9 123.7l80.1 -1.4" stroke="#aaa0ad" stroke-opacity="0.12" stroke-width="0.2"/><path d="M1147.4 450.2l50.6 1.4" stroke="#aaa0ad" stroke-opacity="0.02" stroke-width="0.6"/><path d="M505.9 617.5l83.0 -0.8" stroke="#aaa0ad" stroke-opacity="0.05" stroke-width="1.5"/><path d="M1104.4 54.6l5.1 0.8" stroke="#ec77c8" stroke-opacity="0.08" stroke-width="1.3"/><path d="M576.6 573.2l60.3 -0.5" stroke="#aaa0ad" stroke-opacity="0.07" stroke-width="1.4"/><path d="M1043.7 275.5l44.7 -1.2" stroke="#aaa0ad" stroke-opacity="0.01" stroke-width="1.4"/><path d="M307.1 284.8l57.1 -0.5" stroke="#aaa0ad" stroke-opacity="0.03" stroke-width="0.2"/><path d="M259.9 412.5l2.9 1.2" stroke="#aaa0ad" stroke-opacity="0.11" stroke-width="0.6"/><path d="M520.4 344.3l90.2 -1.5" stroke="#ec77c8" stroke-opacity="0.11" stroke-width="0.9"/><path d="M847.6 235.3l34.6 -1.4" stroke="#aaa0ad" stroke-opacity="0.09" stroke-width="1.3"/><path d="M88.0 536.4l51.3 -0.7" stroke="#aaa0ad" stroke-opacity="0.01" stroke-width="1.0"/><path d="M710.7 193.6l16.6 0.0" stroke="#aaa0ad" stroke-opacity="0.11" stroke-width="0.7"/><path d="M697.8 552.9l9.4 1.3" stroke="#aaa0ad" stroke-opacity="0.07" stroke-width="0.9"/><path d="M1143.0 142.4l30.3 1.4" stroke="#ec77c8" stroke-opacity="0.12" stroke-width="1.1"/><path d="M1084.5 618.9l72.8 0.0" stroke="#aaa0ad" stroke-opacity="0.10" stroke-width="1.7"/><path d="M89.3 508.4l84.4 -1.1" stroke="#aaa0ad" stroke-opacity="0.10" stroke-width="0.5"/><path d="M447.8 567.8l38.5 -0.4" stroke="#aaa0ad" stroke-opacity="0.02" stroke-width="1.4"/><path d="M58.9 210.4l0.3 0.5" stroke="#aaa0ad" stroke-opacity="0.04" stroke-width="1.4"/><path d="M423.5 210.2l30.0 0.2" stroke="#ec77c8" stroke-opacity="0.09" stroke-width="1.2"/><path d="M603.6 206.1l60.2 -1.1" stroke="#aaa0ad" stroke-opacity="0.11" stroke-width="1.3"/><path d="M731.6 391.1l45.4 0.8" stroke="#aaa0ad" stroke-opacity="0.05" stroke-width="1.4"/><path d="M95.1 645.1l49.2 -0.6" stroke="#aaa0ad" stroke-opacity="0.08" stroke-width="1.2"/><path d="M820.6 400.3l19.3 0.3" stroke="#aaa0ad" stroke-opacity="0.08" stroke-width="0.7"/><path d="M180.4 145.2l71.5 0.5" stroke="#ec77c8" stroke-opacity="0.07" stroke-width="0.7"/><path d="M754.0 80.6l17.9 -0.6" stroke="#aaa0ad" stroke-opacity="0.11" stroke-width="0.7"/><path d="M447.8 86.8l22.4 -0.4" stroke="#aaa0ad" stroke-opacity="0.12" stroke-width="1.0"/><path d="M24.1 104.7l98.6 1.0" stroke="#aaa0ad" stroke-opacity="0.02" stroke-width="1.5"/><path d="M595.3 577.2l43.8 0.5" stroke="#aaa0ad" stroke-opacity="0.06" stroke-width="0.4"/><path d="M748.9 390.3l53.4 1.5" stroke="#ec77c8" stroke-opacity="0.02" stroke-width="1.5"/><path d="M1173.9 539.4l28.4 -0.6" stroke="#aaa0ad" stroke-opacity="0.00" stroke-width="0.5"/><path d="M127.4 219.3l14.3 1.0" stroke="#aaa0ad" stroke-opacity="0.09" stroke-width="1.2"/><path d="M577.6 243.1l6.8 -1.4" stroke="#aaa0ad" stroke-opacity="0.02" stroke-width="0.7"/><path d="M66.8 154.2l41.4 -0.7" stroke="#aaa0ad" stroke-opacity="0.12" stroke-width="0.2"/><path d="M959.9 553.3l60.8 0.5" stroke="#ec77c8" stroke-opacity="0.05" stroke-width="0.6"/><path d="M457.9 592.2l63.5 -1.0" stroke="#aaa0ad" stroke-opacity="0.09" stroke-width="0.3"/><path d="M650.1 261.3l33.7 -0.3" stroke="#aaa0ad" stroke-opacity="0.13" stroke-width="1.6"/><path d="M15.1 255.2l46.1 0.5" stroke="#aaa0ad" stroke-opacity="0.05" stroke-width="0.6"/><path d="M258.8 625.4l26.8 -0.6" stroke="#aaa0ad" stroke-opacity="0.11" stroke-width="0.6"/><path d="M524.9 86.6l90.4 0.1" stroke="#ec77c8" stroke-opacity="0.06" stroke-width="1.6"/><path d="M336.6 542.4l55.4 -0.5" stroke="#aaa0ad" stroke-opacity="0.07" stroke-width="1.6"/><path d="M241.6 215.7l72.7 1.0" stroke="#aaa0ad" stroke-opacity="0.01" stroke-width="0.8"/><path d="M968.6 114.5l90.0 0.8" stroke="#aaa0ad" stroke-opacity="0.07" stroke-width="1.6"/><path d="M332.2 225.6l36.7 -1.1" stroke="#aaa0ad" stroke-opacity="0.04" stroke-width="0.5"/><path d="M99.6 396.3l34.3 1.2" stroke="#ec77c8" stroke-opacity="0.02" stroke-width="0.3"/><path d="M637.7 423.6l80.8 -1.3" stroke="#aaa0ad" stroke-opacity="0.12" stroke-width="1.2"/><path d="M1024.9 48.3l60.3 -1.4" stroke="#aaa0ad" stroke-opacity="0.01" stroke-width="0.3"/><path d="M424.2 582.8l22.1 -0.8" stroke="#aaa0ad" stroke-opacity="0.11" stroke-width="1.0"/><path d="M1181.4 424.3l25.7 1.4" stroke="#aaa0ad" stroke-opacity="0.04" stroke-width="0.7"/><path d="M888.0 107.2l68.4 -0.4" stroke="#ec77c8" stroke-opacity="0.10" stroke-width="0.4"/><path d="M209.8 564.4l1.8 -0.0" stroke="#aaa0ad" stroke-opacity="0.10" stroke-width="0.7"/><path d="M935.4 105.1l43.3 -0.5" stroke="#aaa0ad" stroke-opacity="0.01" stroke-width="0.4"/><path d="M743.5 298.3l2.3 -0.3" stroke="#aaa0ad" stroke-opacity="0.01" stroke-width="0.6"/><path d="M603.8 114.7l61.7 1.4" stroke="#aaa0ad" stroke-opacity="0.01" stroke-width="1.6"/><path d="M190.6 573.1l89.0 1.3" stroke="#ec77c8" stroke-opacity="0.01" stroke-width="0.8"/><path d="M787.9 566.8l6.7 1.4" stroke="#aaa0ad" stroke-opacity="0.03" stroke-width="0.7"/><path d="M167.1 448.3l33.6 1.2" stroke="#aaa0ad" stroke-opacity="0.02" stroke-width="0.3"/><path d="M983.2 542.9l87.5 -1.2" stroke="#aaa0ad" stroke-opacity="0.03" stroke-width="1.1"/><path d="M720.1 478.5l61.1 1.1" stroke="#aaa0ad" stroke-opacity="0.07" stroke-width="0.9"/><path d="M558.4 200.1l23.1 1.4" stroke="#ec77c8" stroke-opacity="0.10" stroke-width="1.3"/><path d="M1130.0 592.8l0.7 0.4" stroke="#aaa0ad" stroke-opacity="0.03" stroke-width="0.6"/><path d="M478.1 485.7l98.1 1.1" stroke="#aaa0ad" stroke-opacity="0.00" stroke-width="1.2"/><path d="M106.9 304.2l27.5 -0.7" stroke="#aaa0ad" stroke-opacity="0.11" stroke-width="1.6"/><path d="M659.6 513.9l67.9 -0.2" stroke="#aaa0ad" stroke-opacity="0.07" stroke-width="0.2"/><path d="M657.9 371.5l49.9 -1.4" stroke="#ec77c8" stroke-opacity="0.03" stroke-width="1.7"/><path d="M1168.4 285.3l13.3 1.3" stroke="#aaa0ad" stroke-opacity="0.10" stroke-width="1.7"/><path d="M885.9 557.5l94.3 -1.4" stroke="#aaa0ad" stroke-opacity="0.12" stroke-width="0.4"/><path d="M71.6 167.9l100.0 1.3" stroke="#aaa0ad" stroke-opacity="0.05" stroke-width="0.5"/><path d="M424.9 213.2l25.3 -1.2" stroke="#aaa0ad" stroke-opacity="0.02" stroke-width="1.0"/><path d="M533.9 643.9l83.4 0.8" stroke="#ec77c8" stroke-opacity="0.03" stroke-width="1.0"/><path d="M1132.8 364.2l70.5 0.6" stroke="#aaa0ad" stroke-opacity="0.10" stroke-width="0.5"/><path d="M89.2 563.6l99.4 0.9" stroke="#aaa0ad" stroke-opacity="0.01" stroke-width="1.7"/><path d="M562.6 372.7l65.6 -1.5" stroke="#aaa0ad" stroke-opacity="0.02" stroke-width="1.8"/><path d="M691.7 158.7l58.8 -0.9" stroke="#aaa0ad" stroke-opacity="0.06" stroke-width="1.6"/><path d="M829.7 475.3l74.0 -0.5" stroke="#ec77c8" stroke-opacity="0.13" stroke-width="1.0"/><path d="M1113.0 381.4l92.6 -0.5" stroke="#aaa0ad" stroke-opacity="0.01" stroke-width="0.6"/><path d="M1181.2 70.2l97.8 -0.2" stroke="#aaa0ad" stroke-opacity="0.04" stroke-width="1.2"/><path d="M929.6 191.1l16.7 -0.5" stroke="#aaa0ad" stroke-opacity="0.03" stroke-width="1.7"/><path d="M524.3 367.3l30.7 -1.0" stroke="#aaa0ad" stroke-opacity="0.03" stroke-width="0.6"/><path d="M57.3 61.3l64.5 0.9" stroke="#ec77c8" stroke-opacity="0.10" stroke-width="1.1"/><path d="M1138.2 608.0l69.9 1.0" stroke="#aaa0ad" stroke-opacity="0.03" stroke-width="0.3"/><path d="M1138.1 307.4l2.1 -0.3" stroke="#aaa0ad" stroke-opacity="0.01" stroke-width="0.3"/><path d="M430.8 343.1l64.5 -0.4" stroke="#aaa0ad" stroke-opacity="0.08" stroke-width="0.7"/><path d="M165.6 12.6l36.2 -0.6" stroke="#aaa0ad" stroke-opacity="0.09" stroke-width="1.3"/><path d="M749.0 284.2l95.4 -0.9" stroke="#ec77c8" stroke-opacity="0.08" stroke-width="0.4"/><path d="M646.8 199.8l93.5 -0.7" stroke="#aaa0ad" stroke-opacity="0.09" stroke-width="1.5"/><path d="M311.7 75.2l56.1 -0.7" stroke="#aaa0ad" stroke-opacity="0.04" stroke-width="1.2"/><path d="M119.2 482.5l67.2 -1.4" stroke="#aaa0ad" stroke-opacity="0.08" stroke-width="1.7"/><path d="M987.2 344.0l58.7 0.5" stroke="#aaa0ad" stroke-opacity="0.03" stroke-width="0.5"/><path d="M1091.7 555.1l0.6 -0.3" stroke="#ec77c8" stroke-opacity="0.05" stroke-width="1.3"/><path d="M861.6 105.9l80.4 1.0" stroke="#aaa0ad" stroke-opacity="0.10" stroke-width="0.9"/><path d="M510.6 43.8l63.8 -0.2" stroke="#aaa0ad" stroke-opacity="0.13" stroke-width="1.0"/><path d="M1159.5 156.2l92.6 -0.2" stroke="#aaa0ad" stroke-opacity="0.12" stroke-width="0.8"/><path d="M753.4 407.4l34.4 0.6" stroke="#aaa0ad" stroke-opacity="0.09" stroke-width="0.4"/><path d="M881.2 16.7l84.2 -0.2" stroke="#ec77c8" stroke-opacity="0.06" stroke-width="0.2"/><path d="M267.5 580.8l84.0 0.3" stroke="#aaa0ad" stroke-opacity="0.01" stroke-width="0.7"/><path d="M77.8 107.8l31.8 -0.1" stroke="#aaa0ad" stroke-opacity="0.09" stroke-width="0.9"/><path d="M679.9 68.1l27.4 0.8" stroke="#aaa0ad" stroke-opacity="0.05" stroke-width="1.3"/><path d="M786.5 293.9l24.5 -1.4" stroke="#aaa0ad" stroke-opacity="0.09" stroke-width="1.7"/><path d="M118.4 11.1l25.7 0.0" stroke="#ec77c8" stroke-opacity="0.09" stroke-width="0.5"/><path d="M395.9 116.4l36.6 0.6" stroke="#aaa0ad" stroke-opacity="0.02" stroke-width="1.2"/><path d="M204.1 234.5l72.7 -0.9" stroke="#aaa0ad" stroke-opacity="0.08" stroke-width="0.9"/><path d="M530.0 77.9l3.4 -0.7" stroke="#aaa0ad" stroke-opacity="0.12" stroke-width="1.5"/><path d="M176.8 591.0l95.5 -0.3" stroke="#aaa0ad" stroke-opacity="0.00" stroke-width="0.5"/><path d="M648.3 564.3l30.5 -0.5" stroke="#ec77c8" stroke-opacity="0.07" stroke-width="1.0"/><path d="M416.1 353.9l52.6 -0.5" stroke="#aaa0ad" stroke-opacity="0.04" stroke-width="0.4"/><path d="M676.8 613.4l44.3 0.6" stroke="#aaa0ad" stroke-opacity="0.11" stroke-width="1.6"/><path d="M974.8 1.9l56.4 0.5" stroke="#aaa0ad" stroke-opacity="0.05" stroke-width="0.5"/><path d="M1031.9 129.9l39.4 -0.4" stroke="#aaa0ad" stroke-opacity="0.01" stroke-width="0.5"/><path d="M290.1 19.6l65.9 1.4" stroke="#ec77c8" stroke-opacity="0.04" stroke-width="0.6"/><path d="M205.8 525.3l94.6 0.5" stroke="#aaa0ad" stroke-opacity="0.03" stroke-width="0.4"/><path d="M757.4 213.5l32.7 -1.4" stroke="#aaa0ad" stroke-opacity="0.11" stroke-width="1.7"/><path d="M548.6 637.1l54.8 0.2" stroke="#aaa0ad" stroke-opacity="0.01" stroke-width="1.7"/><path d="M622.2 3.0l73.9 0.3" stroke="#aaa0ad" stroke-opacity="0.02" stroke-width="1.2"/><path d="M520.9 639.4l48.7 1.2" stroke="#ec77c8" stroke-opacity="0.00" stroke-width="1.3"/><path d="M777.2 213.4l70.4 -0.4" stroke="#aaa0ad" stroke-opacity="0.09" stroke-width="1.1"/><path d="M755.0 487.6l12.7 1.4" stroke="#aaa0ad" stroke-opacity="0.02" stroke-width="1.0"/><path d="M1007.9 615.5l8.3 1.4" stroke="#aaa0ad" stroke-opacity="0.06" stroke-width="0.5"/><path d="M712.1 394.9l69.5 -1.4" stroke="#aaa0ad" stroke-opacity="0.07" stroke-width="1.8"/><path d="M200.1 6.1l81.8 0.7" stroke="#ec77c8" stroke-opacity="0.02" stroke-width="1.2"/><path d="M758.9 185.9l58.4 0.2" stroke="#aaa0ad" stroke-opacity="0.05" stroke-width="1.2"/><path d="M369.1 585.2l70.7 0.6" stroke="#aaa0ad" stroke-opacity="0.07" stroke-width="1.3"/><path d="M34.9 627.8l55.9 -1.1" stroke="#aaa0ad" stroke-opacity="0.11" stroke-width="1.0"/><path d="M930.8 204.6l83.4 -0.5" stroke="#aaa0ad" stroke-opacity="0.04" stroke-width="1.7"/><path d="M289.3 168.2l6.9 0.3" stroke="#ec77c8" stroke-opacity="0.09" stroke-width="0.4"/><path d="M509.3 166.3l75.8 -0.5" stroke="#aaa0ad" stroke-opacity="0.06" stroke-width="1.5"/><path d="M430.7 579.5l69.7 0.7" stroke="#aaa0ad" stroke-opacity="0.12" stroke-width="0.7"/><path d="M522.9 413.8l51.0 -0.9" stroke="#aaa0ad" stroke-opacity="0.02" stroke-width="1.5"/><path d="M1008.4 433.6l13.6 -0.8" stroke="#aaa0ad" stroke-opacity="0.11" stroke-width="0.7"/><path d="M141.3 334.3l56.3 0.2" stroke="#ec77c8" stroke-opacity="0.07" stroke-width="0.9"/><path d="M664.8 152.6l19.6 0.4" stroke="#aaa0ad" stroke-opacity="0.09" stroke-width="1.3"/><path d="M825.3 336.7l73.8 -0.6" stroke="#aaa0ad" stroke-opacity="0.06" stroke-width="1.8"/><path d="M641.0 615.6l62.9 -0.1" stroke="#aaa0ad" stroke-opacity="0.10" stroke-width="1.8"/><path d="M41.0 557.2l66.8 0.5" stroke="#aaa0ad" stroke-opacity="0.04" stroke-width="1.7"/><path d="M506.6 34.9l45.4 0.3" stroke="#ec77c8" stroke-opacity="0.10" stroke-width="0.4"/><path d="M32.3 217.5l81.0 0.5" stroke="#aaa0ad" stroke-opacity="0.06" stroke-width="1.7"/><path d="M102.1 612.0l84.7 1.0" stroke="#aaa0ad" stroke-opacity="0.04" stroke-width="0.3"/><path d="M470.7 81.5l27.1 -0.4" stroke="#aaa0ad" stroke-opacity="0.05" stroke-width="1.5"/><path d="M67.4 597.4l59.8 0.9" stroke="#aaa0ad" stroke-opacity="0.01" stroke-width="0.3"/><path d="M497.9 594.3l2.7 1.4" stroke="#ec77c8" stroke-opacity="0.07" stroke-width="1.7"/><path d="M188.7 51.5l82.3 0.6" stroke="#aaa0ad" stroke-opacity="0.06" stroke-width="1.5"/><path d="M260.1 141.4l10.0 0.8" stroke="#aaa0ad" stroke-opacity="0.11" stroke-width="1.1"/><path d="M624.7 510.8l82.4 -0.8" stroke="#aaa0ad" stroke-opacity="0.03" stroke-width="1.0"/><path d="M1144.8 625.7l17.5 -1.4" stroke="#aaa0ad" stroke-opacity="0.09" stroke-width="0.6"/><path d="M1136.1 275.0l62.0 -0.9" stroke="#ec77c8" stroke-opacity="0.04" stroke-width="1.1"/><path d="M166.2 158.4l71.5 -0.3" stroke="#aaa0ad" stroke-opacity="0.10" stroke-width="1.1"/><path d="M799.4 146.3l26.3 -1.0" stroke="#aaa0ad" stroke-opacity="0.09" stroke-width="1.6"/><path d="M857.0 266.7l0.3 -0.4" stroke="#aaa0ad" stroke-opacity="0.08" stroke-width="1.0"/><path d="M1069.3 44.8l65.9 1.4" stroke="#aaa0ad" stroke-opacity="0.09" stroke-width="0.4"/><path d="M431.3 242.5l25.1 -0.7" stroke="#ec77c8" stroke-opacity="0.09" stroke-width="0.9"/><path d="M309.2 171.4l63.5 -1.1" stroke="#aaa0ad" stroke-opacity="0.04" stroke-width="0.3"/><path d="M621.7 299.3l20.9 -1.4" stroke="#aaa0ad" stroke-opacity="0.02" stroke-width="0.6"/><path d="M844.4 79.6l3.0 -0.1" stroke="#aaa0ad" stroke-opacity="0.08" stroke-width="0.4"/><path d="M32.2 41.2l12.7 0.6" stroke="#aaa0ad" stroke-opacity="0.12" stroke-width="1.1"/><path d="M653.3 314.9l85.2 0.7" stroke="#ec77c8" stroke-opacity="0.02" stroke-width="1.5"/><path d="M709.1 275.7l72.3 0.3" stroke="#aaa0ad" stroke-opacity="0.02" stroke-width="1.8"/><path d="M767.7 464.7l41.3 0.2" stroke="#aaa0ad" stroke-opacity="0.08" stroke-width="1.1"/><path d="M738.1 17.1l98.5 -1.2" stroke="#aaa0ad" stroke-opacity="0.06" stroke-width="0.5"/><path d="M922.8 433.4l99.5 -0.1" stroke="#aaa0ad" stroke-opacity="0.10" stroke-width="0.2"/><path d="M157.6 477.7l34.5 0.2" stroke="#ec77c8" stroke-opacity="0.11" stroke-width="0.2"/><path d="M1053.1 37.0l23.5 -1.3" stroke="#aaa0ad" stroke-opacity="0.11" stroke-width="0.3"/><path d="M1170.1 443.7l87.0 -0.6" stroke="#aaa0ad" stroke-opacity="0.10" stroke-width="1.1"/><path d="M994.4 8.1l85.6 -0.9" stroke="#aaa0ad" stroke-opacity="0.00" stroke-width="1.6"/><path d="M809.8 287.2l6.1 -1.2" stroke="#aaa0ad" stroke-opacity="0.03" stroke-width="0.7"/><path d="M39.9 242.3l51.9 0.9" stroke="#ec77c8" stroke-opacity="0.08" stroke-width="0.3"/><path d="M606.1 8.8l63.6 0.0" stroke="#aaa0ad" stroke-opacity="0.09" stroke-width="0.4"/><path d="M899.5 199.7l33.4 0.3" stroke="#aaa0ad" stroke-opacity="0.08" stroke-width="1.4"/><path d="M677.8 644.5l51.3 -0.6" stroke="#aaa0ad" stroke-opacity="0.01" stroke-width="1.0"/><path d="M567.6 272.7l78.0 0.7" stroke="#aaa0ad" stroke-opacity="0.03" stroke-width="1.0"/><path d="M879.9 117.6l63.5 1.0" stroke="#ec77c8" stroke-opacity="0.08" stroke-width="1.7"/><path d="M1062.6 141.0l26.1 0.7" stroke="#aaa0ad" stroke-opacity="0.10" stroke-width="0.8"/><path d="M126.6 244.2l0.2 -0.1" stroke="#aaa0ad" stroke-opacity="0.10" stroke-width="1.0"/><path d="M66.4 139.2l35.7 0.6" stroke="#aaa0ad" stroke-opacity="0.12" stroke-width="1.0"/><path d="M348.9 561.5l37.1 -0.4" stroke="#aaa0ad" stroke-opacity="0.07" stroke-width="1.0"/><path d="M772.0 36.8l70.1 0.4" stroke="#ec77c8" stroke-opacity="0.08" stroke-width="1.3"/><path d="M867.2 66.7l92.0 -0.8" stroke="#aaa0ad" stroke-opacity="0.04" stroke-width="0.6"/><path d="M1179.9 613.3l14.1 -1.1" stroke="#aaa0ad" stroke-opacity="0.09" stroke-width="0.5"/><path d="M1047.7 317.2l37.1 0.9" stroke="#aaa0ad" stroke-opacity="0.05" stroke-width="0.4"/><path d="M551.2 375.8l55.2 1.1" stroke="#aaa0ad" stroke-opacity="0.04" stroke-width="0.7"/><path d="M943.2 537.4l72.5 -0.7" stroke="#ec77c8" stroke-opacity="0.08" stroke-width="1.2"/><path d="M13.1 462.7l90.4 -0.9" stroke="#aaa0ad" stroke-opacity="0.02" stroke-width="1.7"/><path d="M238.3 106.7l91.5 -1.1" stroke="#aaa0ad" stroke-opacity="0.05" stroke-width="1.1"/><path d="M146.9 336.6l50.0 0.6" stroke="#aaa0ad" stroke-opacity="0.11" stroke-width="1.0"/><path d="M1131.5 524.4l51.9 0.4" stroke="#aaa0ad" stroke-opacity="0.10" stroke-width="0.6"/><path d="M1145.5 77.4l15.3 0.6" stroke="#ec77c8" stroke-opacity="0.02" stroke-width="1.2"/><path d="M182.4 23.7l0.1 0.4" stroke="#aaa0ad" stroke-opacity="0.08" stroke-width="1.6"/><path d="M871.1 647.1l18.3 0.2" stroke="#aaa0ad" stroke-opacity="0.11" stroke-width="0.9"/><path d="M144.8 291.6l0.5 0.8" stroke="#aaa0ad" stroke-opacity="0.00" stroke-width="0.5"/><path d="M286.8 86.5l69.2 -0.8" stroke="#aaa0ad" stroke-opacity="0.11" stroke-width="1.6"/><path d="M385.3 242.4l44.5 0.1" stroke="#ec77c8" stroke-opacity="0.07" stroke-width="0.9"/><path d="M421.3 456.5l91.6 -0.0" stroke="#aaa0ad" stroke-opacity="0.11" stroke-width="0.8"/><path d="M62.7 121.0l52.7 -1.4" stroke="#aaa0ad" stroke-opacity="0.10" stroke-width="1.7"/><path d="M239.6 79.6l55.1 0.8" stroke="#aaa0ad" stroke-opacity="0.01" stroke-width="0.6"/><path d="M704.4 252.6l29.7 -1.4" stroke="#aaa0ad" stroke-opacity="0.02" stroke-width="1.2"/><path d="M1150.8 276.5l16.5 1.2" stroke="#ec77c8" stroke-opacity="0.12" stroke-width="1.1"/><path d="M116.6 598.0l34.8 0.8" stroke="#aaa0ad" stroke-opacity="0.07" stroke-width="1.1"/><path d="M931.5 579.1l87.1 1.2" stroke="#aaa0ad" stroke-opacity="0.03" stroke-width="1.5"/><path d="M175.3 336.9l37.2 -0.7" stroke="#aaa0ad" stroke-opacity="0.02" stroke-width="1.6"/><path d="M542.9 271.0l15.9 -0.6" stroke="#aaa0ad" stroke-opacity="0.08" stroke-width="1.6"/><path d="M465.0 20.7l129.2 1.1" stroke="#debad2" stroke-opacity="0.16"/><path d="M33.2 15.3l125.5 0.9" stroke="#debad2" stroke-opacity="0.04"/><path d="M555.9 25.2l128.1 0.1" stroke="#debad2" stroke-opacity="0.25"/><path d="M59.7 5.8l109.5 2.0" stroke="#debad2" stroke-opacity="0.06"/><path d="M829.6 646.7l53.5 0.3" stroke="#debad2" stroke-opacity="0.10"/><path d="M477.2 622.8l60.2 0.2" stroke="#debad2" stroke-opacity="0.03"/><path d="M1100.2 29.0l8.8 -0.3" stroke="#debad2" stroke-opacity="0.14"/><path d="M365.3 7.0l64.4 2.0" stroke="#debad2" stroke-opacity="0.25"/><path d="M299.0 630.5l30.1 -0.5" stroke="#debad2" stroke-opacity="0.06"/><path d="M893.0 1.9l84.1 -0.2" stroke="#debad2" stroke-opacity="0.22"/><path d="M752.9 7.0l110.8 -1.2" stroke="#debad2" stroke-opacity="0.02"/><path d="M43.8 640.8l60.2 1.4" stroke="#debad2" stroke-opacity="0.07"/><path d="M1069.7 649.2l16.4 -1.4" stroke="#debad2" stroke-opacity="0.35"/><path d="M1082.3 20.6l107.2 0.5" stroke="#debad2" stroke-opacity="0.23"/><path d="M528.3 27.8l114.5 -0.2" stroke="#debad2" stroke-opacity="0.24"/><path d="M925.5 20.8l5.6 -0.7" stroke="#debad2" stroke-opacity="0.21"/><path d="M496.9 9.5l107.6 -0.8" stroke="#debad2" stroke-opacity="0.27"/><path d="M322.8 26.7l76.5 -0.1" stroke="#debad2" stroke-opacity="0.33"/><path d="M553.9 641.8l116.0 1.5" stroke="#debad2" stroke-opacity="0.06"/><path d="M979.7 632.5l44.5 0.5" stroke="#debad2" stroke-opacity="0.05"/><path d="M15.7 627.0l118.6 1.7" stroke="#debad2" stroke-opacity="0.04"/><path d="M1148.8 11.1l11.5 0.6" stroke="#debad2" stroke-opacity="0.11"/><path d="M481.1 4.5l12.2 1.2" stroke="#debad2" stroke-opacity="0.28"/><path d="M187.1 624.7l31.3 -1.0" stroke="#debad2" stroke-opacity="0.06"/><path d="M738.6 626.3l34.0 0.8" stroke="#debad2" stroke-opacity="0.02"/><path d="M242.5 627.3l14.6 1.4" stroke="#debad2" stroke-opacity="0.04"/><path d="M601.4 28.4l40.6 -1.3" stroke="#debad2" stroke-opacity="0.31"/><path d="M640.3 648.1l113.5 -0.5" stroke="#debad2" stroke-opacity="0.24"/><path d="M979.3 633.2l90.4 0.2" stroke="#debad2" stroke-opacity="0.14"/><path d="M754.0 632.8l8.5 -1.9" stroke="#debad2" stroke-opacity="0.34"/><path d="M50.5 9.0l64.8 -0.9" stroke="#debad2" stroke-opacity="0.20"/><path d="M830.8 18.6l38.6 -0.2" stroke="#debad2" stroke-opacity="0.29"/><path d="M856.9 641.7l70.5 -0.7" stroke="#debad2" stroke-opacity="0.05"/><path d="M327.0 24.9l65.8 0.4" stroke="#debad2" stroke-opacity="0.36"/><path d="M459.3 640.8l21.8 0.2" stroke="#debad2" stroke-opacity="0.21"/><path d="M666.7 625.0l47.7 -0.9" stroke="#debad2" stroke-opacity="0.03"/><path d="M626.0 22.6l92.6 0.7" stroke="#debad2" stroke-opacity="0.14"/><path d="M472.9 1.1l40.4 -0.2" stroke="#debad2" stroke-opacity="0.27"/><path d="M603.6 18.7l8.1 -0.1" stroke="#debad2" stroke-opacity="0.07"/><path d="M421.6 23.3l85.3 -1.1" stroke="#debad2" stroke-opacity="0.08"/><path d="M807.1 636.2l36.3 -1.2" stroke="#debad2" stroke-opacity="0.13"/><path d="M699.2 630.2l104.9 1.5" stroke="#debad2" stroke-opacity="0.37"/><path d="M39.1 6.7l87.4 0.2" stroke="#debad2" stroke-opacity="0.26"/><path d="M725.8 635.0l73.4 -1.7" stroke="#debad2" stroke-opacity="0.01"/><path d="M231.7 643.2l15.0 0.5" stroke="#debad2" stroke-opacity="0.10"/><path d="M1153.9 7.0l93.3 0.1" stroke="#debad2" stroke-opacity="0.01"/><path d="M896.8 624.4l87.5 -0.8" stroke="#debad2" stroke-opacity="0.24"/><path d="M263.6 640.4l58.9 2.0" stroke="#debad2" stroke-opacity="0.07"/><path d="M330.3 640.9l79.2 -0.6" stroke="#debad2" stroke-opacity="0.00"/><path d="M240.0 626.2l68.5 1.0" stroke="#debad2" stroke-opacity="0.00"/><path d="M536.9 637.9l89.0 1.5" stroke="#debad2" stroke-opacity="0.16"/><path d="M1038.7 646.6l21.8 0.5" stroke="#debad2" stroke-opacity="0.03"/><path d="M435.1 27.1l70.9 -0.1" stroke="#debad2" stroke-opacity="0.38"/><path d="M923.5 17.2l27.6 -0.9" stroke="#debad2" stroke-opacity="0.20"/><path d="M255.8 644.9l96.0 -0.8" stroke="#debad2" stroke-opacity="0.13"/><path d="M1167.3 21.0l20.2 -0.5" stroke="#debad2" stroke-opacity="0.34"/><path d="M1197.9 28.1l70.3 -0.1" stroke="#debad2" stroke-opacity="0.19"/><path d="M1076.7 4.0l127.5 -0.4" stroke="#debad2" stroke-opacity="0.38"/><path d="M679.1 13.5l34.2 0.2" stroke="#debad2" stroke-opacity="0.05"/><path d="M104.1 1.6l59.6 -1.2" stroke="#debad2" stroke-opacity="0.30"/><path d="M1077.3 646.6l83.4 0.0" stroke="#debad2" stroke-opacity="0.29"/><path d="M1002.6 17.7l47.8 0.3" stroke="#debad2" stroke-opacity="0.22"/><path d="M275.7 23.1l114.8 1.0" stroke="#debad2" stroke-opacity="0.19"/><path d="M1009.0 15.6l48.7 -0.9" stroke="#debad2" stroke-opacity="0.09"/><path d="M431.4 2.8l46.1 -0.4" stroke="#debad2" stroke-opacity="0.11"/><path d="M357.8 642.0l120.0 -0.4" stroke="#debad2" stroke-opacity="0.03"/><path d="M739.9 624.6l128.7 1.9" stroke="#debad2" stroke-opacity="0.13"/><path d="M819.1 12.5l103.6 -0.9" stroke="#debad2" stroke-opacity="0.08"/><path d="M123.8 20.7l20.8 1.5" stroke="#debad2" stroke-opacity="0.26"/><path d="M19.3 15.9l93.1 -0.9" stroke="#debad2" stroke-opacity="0.36"/><path d="M752.3 2.6l75.0 -1.0" stroke="#debad2" stroke-opacity="0.33"/><path d="M172.1 632.3l16.6 1.0" stroke="#debad2" stroke-opacity="0.14"/><path d="M874.8 25.7l82.7 0.2" stroke="#debad2" stroke-opacity="0.16"/><path d="M308.3 631.0l75.4 0.9" stroke="#debad2" stroke-opacity="0.31"/><path d="M371.2 1.7l108.1 1.4" stroke="#debad2" stroke-opacity="0.09"/><path d="M1053.5 625.0l110.7 2.0" stroke="#debad2" stroke-opacity="0.02"/><path d="M959.3 626.1l125.1 -1.5" stroke="#debad2" stroke-opacity="0.21"/><path d="M747.8 649.7l50.6 0.4" stroke="#debad2" stroke-opacity="0.06"/><path d="M76.5 625.1l3.3 -0.8" stroke="#debad2" stroke-opacity="0.09"/><path d="M395.2 15.5l100.3 -1.1" stroke="#debad2" stroke-opacity="0.08"/><path d="M1046.4 621.3l101.4 -0.7" stroke="#debad2" stroke-opacity="0.08"/><path d="M991.1 10.5l86.4 0.8" stroke="#debad2" stroke-opacity="0.04"/><path d="M1149.2 0.4l31.4 -0.8" stroke="#debad2" stroke-opacity="0.10"/><path d="M182.1 632.3l52.3 0.8" stroke="#debad2" stroke-opacity="0.05"/><path d="M840.3 18.2l7.1 -1.7" stroke="#debad2" stroke-opacity="0.25"/><path d="M571.6 12.2l47.1 0.0" stroke="#debad2" stroke-opacity="0.23"/><path d="M195.0 628.4l10.7 -1.8" stroke="#debad2" stroke-opacity="0.00"/><path d="M698.9 638.5l120.2 1.8" stroke="#debad2" stroke-opacity="0.27"/><path d="M395.5 2.9l50.4 -1.7" stroke="#debad2" stroke-opacity="0.08"/><path d="M981.8 10.3l64.7 -2.0" stroke="#debad2" stroke-opacity="0.10"/><path d="M422.1 23.1l49.5 -0.3" stroke="#debad2" stroke-opacity="0.26"/><path d="M673.0 635.9l80.1 -0.0" stroke="#debad2" stroke-opacity="0.35"/><path d="M1141.0 25.8l18.2 0.7" stroke="#debad2" stroke-opacity="0.33"/><path d="M586.8 22.0l103.4 -1.3" stroke="#debad2" stroke-opacity="0.06"/><path d="M625.7 621.3l53.2 1.7" stroke="#debad2" stroke-opacity="0.23"/></svg>